<svg width="41" height="40" viewBox="0 0 41 40" fill="none" xmlns="http://www.w3.org/2000/svg">
<g clip-path="url(#clip0_17:998)">
<path d="M31.22 18.4392L13.4195 0.63902C13.0078 0.226991 12.4582 7.16832e-07 11.8722 6.14371e-07C11.2862 5.11909e-07 10.7366 0.226991 10.3249 0.63902L9.014 1.94958C8.161 2.80355 8.161 4.19151 9.014 5.04419L23.9615 19.9917L8.99741 34.9558C8.58571 35.3678 8.35839 35.9171 8.35839 36.5028C8.35839 37.0891 8.58571 37.6384 8.99741 38.0508L10.3083 39.361C10.7203 39.773 11.2696 40 11.8556 40C12.4416 40 12.9912 39.773 13.4029 39.361L31.22 21.5445C31.6327 21.1312 31.8593 20.5794 31.858 19.9927C31.8593 19.4038 31.6327 18.8522 31.22 18.4392Z" fill="white"/>
</g>
<defs>
<clipPath id="clip0_17:998">
<rect width="40" height="40" fill="white" transform="translate(0.108154)"/>
</clipPath>
</defs>
</svg>
