<svg width="41" height="41" viewBox="0 0 41 41" fill="none" xmlns="http://www.w3.org/2000/svg">
<g clip-path="url(#clip0_17:994)">
<path d="M8.99625 21.6687L26.7968 39.4689C27.2085 39.8809 27.758 40.1079 28.3441 40.1079C28.9301 40.1079 29.4797 39.8809 29.8914 39.4689L31.2022 38.1583C32.0552 37.3044 32.0552 35.9164 31.2022 35.0637L16.2547 20.1162L31.2188 5.15208C31.6305 4.74005 31.8578 4.19079 31.8578 3.6051C31.8578 3.01877 31.6305 2.4695 31.2188 2.05715L29.9079 0.746913C29.4959 0.334884 28.9466 0.107895 28.3606 0.107895C27.7746 0.107895 27.225 0.334884 26.8133 0.746913L8.99625 18.5634C8.58357 18.9767 8.3569 19.5286 8.3582 20.1152C8.3569 20.7042 8.58357 21.2557 8.99625 21.6687Z" fill="white"/>
</g>
<defs>
<clipPath id="clip0_17:994">
<rect width="40" height="40" fill="white" transform="translate(40.108 40.1079) rotate(180)"/>
</clipPath>
</defs>
</svg>
